
  <svg width="554.25" height="48" viewBox="0 0 2956 256" fill="none" xmlns="http://www.w3.org/2000/svg" xmlns:xlink="http://www.w3.org/1999/xlink" version="1.1">
    
        <g transform="translate(0, 0)">
          <svg xmlns="http://www.w3.org/2000/svg" width="256" height="256" fill="none" viewBox="0 0 256 256"><rect width="256" height="256" fill="#F4F2ED" rx="60"/><path fill="#4E7896" d="M101.634 182.619C101.634 182.619 93.9548 187.293 106.979 188.63C122.707 190.634 131.023 190.299 148.386 186.962C148.386 186.962 153.06 189.971 159.406 192.306C120.331 209.002 70.9089 191.304 101.634 182.619ZM96.6252 160.914C96.6252 160.914 88.2753 167.26 101.299 168.593C118.327 170.262 131.69 170.597 154.732 165.926C154.732 165.926 157.741 169.267 162.747 170.936C115.664 184.961 62.8975 172.269 96.6252 160.917V160.914ZM188.795 198.984C188.795 198.984 194.471 203.658 182.449 207.334C160.073 214.012 88.6104 216.019 68.5735 207.334C61.564 204.325 74.9197 199.982 79.2587 199.319C83.6012 198.317 85.9366 198.317 85.9366 198.317C78.2569 192.973 34.8424 209.337 63.8959 214.046C143.709 227.073 209.499 208.37 188.792 199.018L188.795 198.984ZM105.307 138.203C105.307 138.203 68.9052 146.888 92.2793 149.89C102.298 151.223 122 150.892 140.368 149.555C155.396 148.221 170.458 145.548 170.458 145.548C170.458 145.548 165.113 147.886 161.441 150.222C124.342 159.915 53.2107 155.573 73.5827 145.554C90.9526 137.204 105.307 138.203 105.307 138.203V138.203ZM170.423 174.604C207.83 155.234 190.46 136.534 178.438 138.873C175.429 139.54 174.096 140.207 174.096 140.207C174.096 140.207 175.097 138.203 177.436 137.54C201.145 129.19 219.849 162.586 169.757 175.61C169.757 175.61 170.092 175.275 170.423 174.608V174.604ZM108.979 227.364C145.046 229.703 200.147 226.03 201.484 208.995C201.484 208.995 198.817 215.673 171.764 220.683C141.042 226.359 102.968 225.692 80.5957 222.016C80.5957 222.016 85.2698 226.023 108.982 227.36L108.979 227.364Z"/><path fill="#F58219" d="M147.685 28C147.685 28 168.389 49.0388 127.983 80.7594C95.5891 106.472 120.632 121.168 127.983 137.861C108.948 120.833 95.2609 105.802 104.606 91.7762C118.331 71.0828 156.062 61.0644 147.685 28ZM137 123.842C146.683 134.862 134.333 144.881 134.333 144.881C134.333 144.881 159.044 132.195 147.692 116.494C137.338 101.466 129.324 94.1184 172.738 69.0689C172.738 69.0689 104.277 86.0968 137.007 123.835L137 123.842Z"/></svg>
        </g>
         
        <g transform="translate(300, 0)">
          <svg xmlns="http://www.w3.org/2000/svg" width="256" height="256" fill="none" viewBox="0 0 256 256"><rect width="256" height="256" fill="#F4F2ED" rx="60"/><g clip-path="url(#clip0_4_187)"><path fill="#0ACF83" d="M94.3467 228C112.747 228 127.68 213.067 127.68 194.667V161.333H94.3467C75.9467 161.333 61.0133 176.267 61.0133 194.667C61.0133 213.067 75.9467 228 94.3467 228Z"/><path fill="#A259FF" d="M61.0133 128C61.0133 109.6 75.9467 94.6667 94.3467 94.6667H127.68V161.333H94.3467C75.9467 161.333 61.0133 146.4 61.0133 128Z"/><path fill="#F24E1E" d="M61.0133 61.3333C61.0133 42.9333 75.9467 28 94.3467 28H127.68V94.6667H94.3467C75.9467 94.6667 61.0133 79.7333 61.0133 61.3333Z"/><path fill="#FF7262" d="M127.68 28H161.013C179.413 28 194.347 42.9333 194.347 61.3333C194.347 79.7333 179.413 94.6667 161.013 94.6667H127.68V28Z"/><path fill="#1ABCFE" d="M194.347 128C194.347 146.4 179.413 161.333 161.013 161.333C142.613 161.333 127.68 146.4 127.68 128C127.68 109.6 142.613 94.6667 161.013 94.6667C179.413 94.6667 194.347 109.6 194.347 128Z"/></g><defs><clipPath id="clip0_4_187"><rect width="133.36" height="200" fill="#fff" transform="translate(61 28)"/></clipPath></defs></svg>
        </g>
         
        <g transform="translate(600, 0)">
          <svg xmlns="http://www.w3.org/2000/svg" width="256" height="256" fill="none" viewBox="0 0 256 256"><rect width="256" height="256" fill="#F03C2E" rx="60"/><g clip-path="url(#clip0_7_283)"><path fill="#fff" d="M224.225 119.094L136.906 31.775C135.711 30.5787 134.291 29.6298 132.729 28.9824C131.166 28.3349 129.491 28.0017 127.8 28.0017C126.109 28.0017 124.434 28.3349 122.871 28.9824C121.309 29.6298 119.889 30.5787 118.694 31.775L100.569 49.9L123.569 72.9C128.919 71.025 135.044 72.3062 139.306 76.5687C141.335 78.6014 142.752 81.1638 143.394 83.9632C144.036 86.7626 143.878 89.6862 142.937 92.4L165.106 114.569C170.469 112.719 176.656 113.912 180.937 118.206C182.361 119.63 183.49 121.32 184.26 123.18C185.03 125.04 185.426 127.033 185.426 129.046C185.425 131.059 185.029 133.052 184.258 134.912C183.487 136.771 182.358 138.461 180.934 139.884C179.511 141.308 177.821 142.436 175.961 143.206C174.101 143.977 172.108 144.373 170.095 144.372C168.082 144.372 166.088 143.975 164.229 143.205C162.369 142.434 160.679 141.305 159.256 139.881C154.756 135.381 153.644 128.756 155.919 123.212L135.244 102.537V156.944C136.745 157.686 138.116 158.666 139.306 159.844C140.729 161.267 141.858 162.956 142.629 164.816C143.399 166.675 143.795 168.668 143.795 170.681C143.795 172.694 143.399 174.687 142.629 176.546C141.858 178.406 140.729 180.096 139.306 181.519C137.883 182.942 136.193 184.071 134.334 184.841C132.474 185.611 130.481 186.008 128.469 186.008C126.456 186.008 124.463 185.611 122.604 184.841C120.744 184.071 119.054 182.942 117.631 181.519C116.206 180.096 115.076 178.407 114.305 176.548C113.533 174.688 113.136 172.694 113.136 170.681C113.136 168.668 113.533 166.675 114.305 164.815C115.076 162.955 116.206 161.266 117.631 159.844C119.112 158.369 120.756 157.25 122.65 156.5V101.587C120.825 100.837 119.112 99.7312 117.631 98.2437C115.479 96.0943 114.016 93.3526 113.428 90.3684C112.841 87.3841 113.155 84.2924 114.331 81.4875L91.6437 58.8125L31.7687 118.625C30.5716 119.821 29.6219 121.241 28.9739 122.804C28.3259 124.367 27.9924 126.042 27.9924 127.734C27.9924 129.426 28.3259 131.102 28.9739 132.665C29.6219 134.228 30.5716 135.648 31.7687 136.844L119.094 224.156C120.289 225.352 121.709 226.301 123.271 226.949C124.834 227.596 126.509 227.929 128.2 227.929C129.891 227.929 131.566 227.596 133.129 226.949C134.691 226.301 136.111 225.352 137.306 224.156L224.225 137.375C225.422 136.179 226.372 134.759 227.02 133.196C227.668 131.633 228.001 129.958 228.001 128.266C228.001 126.574 227.668 124.898 227.02 123.335C226.372 121.772 225.422 120.352 224.225 119.156"/></g><defs><clipPath id="clip0_7_283"><rect width="200" height="200" fill="#fff" transform="translate(28 28)"/></clipPath></defs></svg>
        </g>
         
        <g transform="translate(900, 0)">
          <svg width="256" height="256" viewBox="0 0 256 256" fill="none" xmlns="http://www.w3.org/2000/svg">
<rect width="256" height="256" rx="60" fill="#F4F2ED"/>
<path d="M128.001 30C72.7791 30 28 74.7708 28 130.001C28 174.184 56.6533 211.668 96.3867 224.891C101.384 225.817 103.219 222.722 103.219 220.081C103.219 217.696 103.126 209.819 103.083 201.463C75.2631 207.512 69.3927 189.664 69.3927 189.664C64.8437 178.105 58.2894 175.032 58.2894 175.032C49.2163 168.825 58.9733 168.953 58.9733 168.953C69.0151 169.658 74.3026 179.258 74.3026 179.258C83.2217 194.546 97.6965 190.126 103.403 187.571C104.301 181.107 106.892 176.696 109.752 174.199C87.5405 171.67 64.1913 163.095 64.1913 124.778C64.1913 113.86 68.0977 104.939 74.4947 97.9362C73.4564 95.4175 70.0335 85.2465 75.4635 71.4722C75.4635 71.4722 83.8609 68.7845 102.971 81.7226C110.948 79.5069 119.502 78.3958 128.001 78.3577C136.499 78.3958 145.061 79.5069 153.052 81.7226C172.139 68.7845 180.525 71.4722 180.525 71.4722C185.968 85.2465 182.544 95.4175 181.505 97.9362C187.917 104.939 191.797 113.86 191.797 124.778C191.797 163.187 168.403 171.644 146.135 174.119C149.722 177.223 152.918 183.308 152.918 192.638C152.918 206.018 152.802 216.787 152.802 220.081C152.802 222.742 154.602 225.86 159.671 224.878C199.383 211.64 228 174.169 228 130.001C228 74.7708 183.227 30 128.001 30ZM65.4536 172.453C65.2333 172.95 64.4517 173.099 63.7396 172.758C63.0143 172.432 62.6069 171.754 62.8421 171.256C63.0574 170.744 63.8406 170.602 64.5643 170.945C65.2913 171.271 65.7053 171.955 65.4536 172.453ZM70.3725 176.842C69.8956 177.285 68.9633 177.079 68.3307 176.38C67.6766 175.683 67.554 174.751 68.0376 174.302C68.5294 173.86 69.4336 174.067 70.0893 174.764C70.7434 175.47 70.8709 176.395 70.3725 176.842ZM73.7471 182.458C73.1344 182.884 72.1325 182.485 71.5132 181.595C70.9004 180.706 70.9004 179.64 71.5264 179.212C72.1474 178.785 73.1344 179.169 73.762 180.052C74.373 180.956 74.373 182.023 73.7471 182.458ZM79.4542 188.962C78.9061 189.566 77.7386 189.404 76.8841 188.579C76.0098 187.773 75.7663 186.629 76.3161 186.024C76.8709 185.418 78.045 185.589 78.9061 186.407C79.7738 187.211 80.0387 188.364 79.4542 188.962ZM86.8301 191.157C86.5883 191.941 85.4639 192.297 84.3312 191.964C83.2002 191.621 82.46 190.704 82.6885 189.912C82.9237 189.124 84.053 188.753 85.194 189.109C86.3234 189.45 87.0652 190.361 86.8301 191.157ZM95.2242 192.089C95.2523 192.913 94.2919 193.597 93.1029 193.612C91.9073 193.639 90.9402 192.971 90.9269 192.16C90.9269 191.327 91.8659 190.65 93.0615 190.63C94.2505 190.607 95.2242 191.269 95.2242 192.089ZM103.47 191.773C103.613 192.577 102.787 193.404 101.606 193.624C100.445 193.836 99.3702 193.339 99.2229 192.541C99.0788 191.716 99.92 190.89 101.079 190.676C102.262 190.471 103.32 190.955 103.47 191.773Z" fill="#161614"/>
</svg>

        </g>
         
        <g transform="translate(1200, 0)">
          <svg xmlns="http://www.w3.org/2000/svg" width="256" height="256" fill="none" viewBox="0 0 256 256"><rect width="256" height="256" fill="#F4F2ED" rx="60"/><path fill="url(#paint0_linear_159_780)" d="M78.5714 184L30.2856 145.714L54.2856 101.143L123.143 128L78.5714 184Z"/><path fill="url(#paint1_linear_159_780)" d="M228 81.4285L224.286 197.143L147.429 228L101.143 198.286L168.857 128L139.143 63.1428L165.714 31.1428L228 81.4285Z"/><path fill="url(#paint2_linear_159_780)" d="M228 81.4285L167.143 153.429L139.143 63.1428L165.714 31.1428L228 81.4285Z"/><path fill="url(#paint3_linear_159_780)" d="M124.286 194L44 223.143L56.8571 178L73.7143 122.571L28 107.143L56.8571 28L119.714 35.7143L181.429 106.286L124.286 194Z"/><path fill="#000" d="M190.571 66.5715H67.1428V190H190.571V66.5715Z"/><path fill="#fff" d="M124.857 166.857H78.5713V174.571H124.857V166.857Z"/><path fill="#fff" d="M112 92.0001V82.5715H86.2856V92.0001H93.7142V124.286H86.2856V133.714H112V124.286H104.857V92.0001H112Z"/><path fill="#fff" d="M136.571 134.572C132.571 134.572 129.143 133.714 126.571 132.286C124 130.857 121.714 128.857 120 126.857L127.143 118.857C128.571 120.572 130 121.714 131.429 122.572C132.857 123.429 134.571 124 136.286 124C138.286 124 140 123.429 141.429 122C142.571 120.572 143.143 118.572 143.143 115.429V82.5715H154.571V116C154.571 119.143 154.286 121.714 153.429 124C152.571 126.286 151.429 128 149.714 129.714C148.286 131.143 146.286 132.572 144 133.143C141.714 134 139.429 134.572 136.571 134.572Z"/><defs><linearGradient id="paint0_linear_159_780" x1="30.256" x2="123.192" y1="142.541" y2="142.541" gradientUnits="userSpaceOnUse"><stop offset=".258" stop-color="#F97A12"/><stop offset=".459" stop-color="#B07B58"/><stop offset=".724" stop-color="#577BAE"/><stop offset=".91" stop-color="#1E7CE5"/><stop offset="1" stop-color="#087CFA"/></linearGradient><linearGradient id="paint1_linear_159_780" x1="101.621" x2="254.926" y1="99.086" y2="183.914" gradientUnits="userSpaceOnUse"><stop stop-color="#F97A12"/><stop offset=".072" stop-color="#CB7A3E"/><stop offset=".154" stop-color="#9E7B6A"/><stop offset=".242" stop-color="#757B91"/><stop offset=".334" stop-color="#537BB1"/><stop offset=".432" stop-color="#387CCC"/><stop offset=".538" stop-color="#237CE0"/><stop offset=".655" stop-color="#147CEF"/><stop offset=".792" stop-color="#0B7CF7"/><stop offset="1" stop-color="#087CFA"/></linearGradient><linearGradient id="paint2_linear_159_780" x1="208.651" x2="165.972" y1="150.615" y2="23.088" gradientUnits="userSpaceOnUse"><stop stop-color="#FE315D"/><stop offset=".078" stop-color="#CB417E"/><stop offset=".16" stop-color="#9E4E9B"/><stop offset=".247" stop-color="#755BB4"/><stop offset=".339" stop-color="#5365CA"/><stop offset=".436" stop-color="#386DDB"/><stop offset=".541" stop-color="#2374E9"/><stop offset=".658" stop-color="#1478F3"/><stop offset=".794" stop-color="#0B7BF8"/><stop offset="1" stop-color="#087CFA"/></linearGradient><linearGradient id="paint3_linear_159_780" x1="58.63" x2="186.639" y1="75.066" y2="286.8" gradientUnits="userSpaceOnUse"><stop stop-color="#FE315D"/><stop offset=".04" stop-color="#F63462"/><stop offset=".104" stop-color="#DF3A71"/><stop offset=".167" stop-color="#C24383"/><stop offset=".291" stop-color="#AD4A91"/><stop offset=".55" stop-color="#755BB4"/><stop offset=".917" stop-color="#1D76ED"/><stop offset="1" stop-color="#087CFA"/></linearGradient></defs></svg>
        </g>
         
        <g transform="translate(1500, 0)">
          <svg xmlns="http://www.w3.org/2000/svg" width="256" height="256" fill="none" viewBox="0 0 256 256"><rect width="256" height="256" fill="#F4F2ED" rx="60"/><g clip-path="url(#clip0_7_155)"><path fill="#000" d="M171.474 169.034C172.62 159.493 172.276 158.101 179.377 159.641L181.184 159.802C186.648 160.048 193.791 158.923 198.059 156.976C207.095 152.785 212.452 145.782 203.544 147.624C183.223 151.815 181.747 144.931 181.747 144.931C203.213 113.08 212.192 72.65 204.437 62.757C183.315 35.757 146.745 48.5258 146.134 48.8633L145.937 48.8984C141.929 48.0547 137.499 47.5625 132.366 47.4922C123.17 47.3516 116.195 49.9039 110.893 53.9188C110.893 53.9188 45.6641 27.0453 48.6945 87.718C49.3414 100.627 67.1867 185.452 88.4914 159.788C96.2891 150.409 103.813 142.484 103.813 142.484C107.539 144.966 112.018 146.232 116.708 145.775L117.073 145.466C116.965 146.681 117.015 147.905 117.221 149.108C111.737 155.239 113.354 156.315 102.385 158.572C91.2899 160.857 97.8149 164.928 102.062 165.997C107.223 167.291 119.162 169.119 127.234 157.827L126.91 159.113C129.062 160.836 128.914 171.488 129.23 179.096C129.547 186.704 130.046 193.813 131.6 197.996C133.154 202.18 134.975 212.973 149.389 209.949C161.434 207.369 170.645 203.649 171.488 169.098"/><path stroke="#000" stroke-width="15.11" d="M171.474 169.034C172.62 159.493 172.276 158.101 179.377 159.641L181.184 159.802C186.648 160.048 193.791 158.923 198.059 156.976C207.095 152.785 212.452 145.782 203.544 147.624C183.223 151.815 181.747 144.931 181.747 144.931C203.213 113.08 212.192 72.65 204.437 62.757C183.315 35.757 146.745 48.5258 146.134 48.8633L145.937 48.8984C141.929 48.0547 137.499 47.5625 132.366 47.4922C123.17 47.3516 116.195 49.9039 110.893 53.9188C110.893 53.9188 45.6641 27.0453 48.6945 87.718C49.3414 100.627 67.1867 185.452 88.4914 159.788C96.2891 150.409 103.813 142.484 103.813 142.484C107.539 144.966 112.018 146.232 116.708 145.775L117.073 145.466C116.965 146.681 117.015 147.905 117.221 149.108C111.737 155.239 113.354 156.315 102.385 158.572C91.2899 160.857 97.8149 164.928 102.062 165.997C107.223 167.291 119.162 169.119 127.234 157.827L126.91 159.113C129.062 160.836 128.914 171.488 129.23 179.096C129.547 186.704 130.046 193.813 131.6 197.996C133.154 202.18 134.975 212.973 149.389 209.949C161.434 207.369 170.645 203.649 171.488 169.098"/><path fill="#336791" d="M203.48 147.688C183.16 151.878 181.684 144.995 181.684 144.995C203.15 113.143 212.129 72.7134 204.38 62.8204C183.259 35.8204 146.689 48.5962 146.077 48.9266L145.88 48.9618C141.414 48.0656 136.873 47.5924 132.317 47.5485C123.12 47.4079 116.145 49.9602 110.844 53.9751C110.844 53.9751 45.6078 27.1016 48.6453 87.7743C49.2922 100.684 67.1375 185.509 88.4422 159.845C96.2891 150.409 103.813 142.484 103.813 142.484C107.539 144.966 112.018 146.232 116.708 145.775L117.073 145.466C116.966 146.681 117.016 147.905 117.221 149.108C111.737 155.239 113.354 156.315 102.385 158.572C91.2899 160.857 97.8149 164.928 102.062 165.997C107.223 167.291 119.162 169.119 127.234 157.827L126.91 159.113C129.062 160.836 130.566 170.314 130.313 178.906C130.06 187.499 129.891 193.391 131.579 198.003C133.266 202.616 134.954 212.98 149.368 209.956C161.413 207.376 167.649 200.675 168.528 189.524C169.147 181.592 170.539 182.759 170.638 175.672L171.763 172.311C173.049 161.553 171.973 158.087 179.391 159.704L181.198 159.866C186.662 160.112 193.813 158.987 198.003 157.039C207.038 152.849 212.396 145.845 203.488 147.688H203.48Z"/><path stroke="#fff" stroke-linecap="round" stroke-linejoin="round" stroke-width="5.034" d="M146.07 48.5961C143.82 49.2993 182.38 34.4985 204.303 62.504C212.038 72.3969 203.073 112.827 181.606 144.678M128.098 153.784C127.536 173.795 128.239 193.946 130.194 198.784C132.148 203.621 136.346 213.198 150.767 210.118C162.812 207.538 167.199 202.538 169.098 191.506L173.548 156.231L128.098 153.784ZM110.816 53.4688C110.816 53.4688 45.5375 26.7782 48.575 87.4508C49.2219 100.36 67.0672 185.185 88.3719 159.521C96.1484 150.148 103.18 142.815 103.18 142.815L110.816 53.4688Z"/><path stroke="#fff" stroke-linecap="round" stroke-linejoin="bevel" stroke-width="5.034" d="M181.613 144.664C181.613 144.664 183.02 151.555 203.41 147.35C212.319 145.508 206.954 152.511 197.926 156.702C190.515 160.147 173.893 161.026 173.619 156.28C172.916 144.01 182.366 147.737 181.684 144.664C181.065 141.894 176.832 139.18 174.048 132.402C171.608 126.495 140.579 81.1438 182.654 87.8727C184.201 87.5563 171.685 47.7946 132.31 47.2181C92.9352 46.6415 94.1797 95.6282 94.1797 95.6282"/><path stroke="#fff" stroke-linejoin="round" stroke-width="5.034" d="M117.08 148.869C111.596 155 113.213 156.076 102.245 158.333C91.1492 160.618 97.6742 164.689 101.921 165.758C107.082 167.052 119.021 168.88 127.093 157.58C129.554 154.135 127.079 148.651 123.704 147.259C122.073 146.584 119.893 145.74 117.095 148.876L117.08 148.869Z"/><path stroke="#fff" stroke-linecap="round" stroke-linejoin="round" stroke-width="5.034" d="M116.722 148.763C116.159 145.156 117.903 140.874 119.766 135.854C122.565 128.331 129.02 120.807 123.859 96.9219C120.012 79.1329 94.1867 93.2165 94.1867 95.6282C94.1867 98.0399 95.3539 107.863 93.7648 119.288C91.6766 134.209 103.257 146.823 116.588 145.536"/><path fill="#fff" stroke="#fff" stroke-width="1.68" d="M110.577 95.2695C110.457 96.0922 112.088 98.293 114.205 98.5883C116.321 98.8836 118.128 97.168 118.248 96.3383C118.367 95.5086 116.736 94.6086 114.62 94.3133C112.503 94.018 110.682 94.4539 110.577 95.2695V95.2695Z"/><path fill="#fff" stroke="#fff" stroke-width=".837" d="M175.011 93.5891C175.123 94.4118 173.499 96.6125 171.383 96.9079C169.266 97.2032 167.445 95.4875 167.34 94.6579C167.234 93.8282 168.852 92.9282 170.968 92.6329C173.084 92.3375 174.905 92.7735 175.011 93.5891Z"/><path stroke="#fff" stroke-linecap="round" stroke-linejoin="round" stroke-width="5.034" d="M182.577 87.8867C182.928 94.3555 181.184 98.75 180.959 105.634C180.636 115.632 185.727 127.079 178.055 138.54"/></g><defs><clipPath id="clip0_7_155"><rect width="180" height="180" fill="#fff" transform="translate(38 38)"/></clipPath></defs></svg>
        </g>
         
        <g transform="translate(1800, 0)">
          <svg width="256" height="256" viewBox="0 0 256 256" fill="none" xmlns="http://www.w3.org/2000/svg">
<rect width="256" height="256" rx="60" fill="#F4F2ED"/>
<path d="M209.545 171.821C184.93 204.618 132.347 193.547 98.6353 195.139C98.6353 195.139 92.6673 195.471 86.6563 196.461C86.6563 196.461 88.9292 195.491 91.8279 194.492C115.506 186.304 126.695 184.659 141.082 177.269C168.114 163.421 195.018 133.259 200.492 101.925C190.202 132.061 158.909 157.998 130.415 168.53C110.911 175.727 75.6419 182.731 75.6368 182.734C75.6533 182.759 74.2312 181.996 74.2113 181.979C50.2253 170.309 49.5332 118.359 93.0965 101.613C112.197 94.2661 130.466 98.3015 151.114 93.387C173.136 88.151 198.642 71.644 209.009 50.063C220.631 84.5351 234.592 138.467 209.545 171.821V171.821ZM209.973 39.3809C207.043 46.343 203.466 52.6167 199.344 58.2281C181.197 39.6038 155.868 27.9999 127.871 27.9999C72.7989 27.9999 28 72.8039 28 127.866C28 156.731 40.3209 182.764 59.9644 201.012L62.1514 202.949C58.4993 199.971 57.9377 194.608 60.8977 190.952C63.8759 187.295 69.2444 186.728 72.8983 189.69C76.562 192.658 77.1202 198.035 74.1538 201.697C71.1984 205.361 65.8202 205.914 62.1614 202.958L63.6497 204.276C81.0254 218.906 103.424 227.743 127.871 227.743C180.511 227.743 223.736 186.778 227.436 135.073C230.176 109.757 222.699 77.6106 209.973 39.3809Z" fill="#5FB832"/>
</svg>

        </g>
         
        <g transform="translate(2100, 0)">
          <svg xmlns="http://www.w3.org/2000/svg" width="256" height="256" fill="none" viewBox="0 0 256 256"><rect width="256" height="256" fill="#F4F2EE" rx="60"/><path fill="#41B883" d="M182 50H218L128 205.25L38 50H73.55H106.85L128 86L148.7 50H182Z"/><path fill="#41B883" d="M38 50L128 205.25L218 50H182L128 143.15L73.55 50H38Z"/><path fill="#35495E" d="M73.55 50L128 143.6L182 50H148.7L128 86L106.85 50H73.55Z"/></svg>
        </g>
         
        <g transform="translate(2400, 0)">
          <svg xmlns="http://www.w3.org/2000/svg" width="256" height="256" fill="none" viewBox="0 0 256 256"><rect width="256" height="256" fill="#F4F2ED" rx="60"/><g clip-path="url(#clip0_147_969)"><path fill="url(#paint0_linear_147_969)" d="M144.757 223.193C139.696 229.566 129.434 226.074 129.312 217.936L127.529 98.9075H207.564C222.06 98.9075 230.145 115.651 221.131 127.004L144.757 223.193Z"/><path fill="url(#paint1_linear_147_969)" fill-opacity=".2" d="M144.757 223.193C139.696 229.566 129.434 226.074 129.312 217.936L127.529 98.9075H207.564C222.06 98.9075 230.145 115.651 221.131 127.004L144.757 223.193Z"/><path fill="#3ECF8E" d="M112.207 31.6655C117.268 25.2914 127.53 28.784 127.652 36.9221L128.434 155.951H49.4003C34.9034 155.951 26.8182 139.207 35.8328 127.854L112.207 31.6655Z"/></g><defs><linearGradient id="paint0_linear_147_969" x1="127.529" x2="198.661" y1="125.299" y2="155.132" gradientUnits="userSpaceOnUse"><stop stop-color="#249361"/><stop offset="1" stop-color="#3ECF8E"/></linearGradient><linearGradient id="paint1_linear_147_969" x1="95.993" x2="128.433" y1="82.12" y2="143.187" gradientUnits="userSpaceOnUse"><stop/><stop offset="1" stop-opacity="0"/></linearGradient><clipPath id="clip0_147_969"><rect width="192.92" height="200" fill="#fff" transform="translate(32 28)"/></clipPath></defs></svg>
        </g>
         
        <g transform="translate(2700, 0)">
          <svg xmlns="http://www.w3.org/2000/svg" width="256" height="256" fill="none" viewBox="0 0 256 256"><rect width="256" height="256" fill="#F4F2ED" rx="60"/><path fill="#2489CA" d="M33.7158 100.208C33.7158 100.208 28.9814 96.795 34.6627 92.2381L47.8994 80.402C47.8994 80.402 51.6869 76.4172 55.6915 79.8891L177.84 172.368V216.714C177.84 216.714 177.781 223.678 168.844 222.908L33.7158 100.208Z"/><path fill="#1070B3" d="M65.1997 128.792L33.7157 157.415C33.7157 157.415 30.4805 159.822 33.7157 164.123L48.3333 177.418C48.3333 177.418 51.8052 181.147 56.9341 176.905L90.3119 151.596L65.1997 128.792Z"/><path fill="#0877B9" d="M120.474 129.029L178.215 84.9391L177.84 40.83C177.84 40.83 175.374 31.2033 167.148 36.2139L90.312 106.145L120.474 129.029Z"/><path fill="#3C99D4" d="M168.844 222.968C172.198 226.4 176.262 225.276 176.262 225.276L221.259 203.103C227.019 199.177 226.21 194.305 226.21 194.305V61.8982C226.21 56.0788 220.252 54.0667 220.252 54.0667L181.253 35.267C172.731 30 167.148 36.2139 167.148 36.2139C167.148 36.2139 174.328 31.0455 177.84 40.83V215.905C177.84 217.109 177.583 218.292 177.071 219.358C176.045 221.429 173.816 223.362 168.47 222.553L168.844 222.968Z"/></svg>
        </g>
        
  </svg>
  